# xmcd
#
# Track frame offsets: 
#        150
#        13829
#        29557
#        47856
#        63066
#        78942
#        99206
#        110439
#        125063
#        149468
#        172504
#        186768
#        224006
#        234225
#        260162
#        275747
#        290184
#        312451
#        327097
#
# Disc length: 4668 seconds
#
# Revision: 2
# Processed by: cddbd v1.5.2PL0 Copyright (c) Steve Scherf et al.
# Submitted via: ExactAudioCopy v0.99pb3
#
DISCID=1e123a13
DTITLE=Various Artist - Our Manne In Jazz (Mjcd 1211)
DYEAR=2009
DGENRE=Jazz
TTITLE0=Shelly Manne and His Friends/I Could Have Danced All Night
TTITLE1=Shelly Manne and His Men/En Passant
TTITLE2=Ornette Coleman/Rejoicing
TTITLE3=Peggy Lee/Fever
TTITLE4=The Poll-Winners/Jordu
TTITLE5=Shelly Manne/Autumn In New York
TTITLE6=Jack Marshall And His Music/The River Kwai March
TTITLE7=Stan Kenton and His Orchestra/Artistry In Percussion
TTITLE8=Sonny Rollins/I've Told Ev'ry Little Star
TTITLE9=Coleman Hawkins/The Man I Love
TTITLE10=Shelly Manne and His Men/You And The Night And The Music
TTITLE11=Howard Rumsey's Lighthouse All-Stars/Viva Zapata!
TTITLE12=Shelly Manne and His Men/Peter Gunn
TTITLE13=Hampton Hawes Quartet/Love Is Just Around The Corner
TTITLE14=Pete Rugolo/Ballade For Drums
TTITLE15=Shelly Manne and His Men/The Dart Game
TTITLE16=Red Norvo/Payin' The Dues Blues
TTITLE17=Charlie Parker/Barbados
TTITLE18=Fabio Jegher Quartet/I've Never Been In Love Before
EXTD=YEAR: 2009
EXTT0=
EXTT1=
EXTT2=
EXTT3=
EXTT4=
EXTT5=
EXTT6=
EXTT7=
EXTT8=
EXTT9=
EXTT10=
EXTT11=
EXTT12=
EXTT13=
EXTT14=
EXTT15=
EXTT16=
EXTT17=
EXTT18=
PLAYORDER=
